#!OML:ASF E:\emotionWalksFemale\Project 1\Capture day 1\Session 1\Female1.ASF
:FULLY-SPECIFIED
:DEGREES
32
root 8.70019 15.3599 21.5426 178.447 -1.45002 -177.942
lowerback 8.86962 1.57546 2.20573
upperback -3.97963 2.37454 0.314243
thorax -9.14267 1.00951 -1.29564
lowerneck -6.86906 -3.64199 -7.67201
upperneck 12.3187 -5.06391 5.93428
head 5.17133 -2.56914 2.75751
rclavicle -1.90833e-014 1.88845e-015
rhumerus -42.1533 7.09883 -88.4859
rradius 34.6789
rwrist 22.1655
rhand -10.666 -53.7868
rfingers 7.12502
rthumb 15.3422 -83.1976
lclavicle -1.90833e-014 1.88845e-015
lhumerus -45.1502 2.51643 83.2042
lradius 37.695
lwrist -11.8376
lhand -1.0761 -30.2989
lfingers 7.12502
lthumb 24.5593 -1.85402
rfemur -2.57313 8.76889 25.9754
rtibia 21.7286
rfoot -17.9553 -27.7719
rtoes -7.23453
lfemur -9.80564 -14.5035 -20.126
ltibia 30.5256
lfoot -19.7076 15.6062
ltoes -54.4242
33
root 8.69971 15.3615 21.5417 178.499 -1.45094 -177.985
lowerback 8.89098 1.60314 2.20012
upperback -3.97224 2.4097 0.282838
thorax -9.14474 1.02622 -1.33228
lowerneck -6.87932 -3.66686 -7.73494
upperneck 12.2702 -5.10152 6.05539
head 5.16531 -2.58172 2.80302
rclavicle 2.31025e-014 1.11319e-014
rhumerus -42.0866 7.15491 -88.4184
rradius 34.8175
rwrist 22.1238
rhand -11.2017 -53.3942
rfingers 7.12502
rthumb 14.8262 -82.8438
lclavicle 2.31025e-014 1.11319e-014
lhumerus -45.1026 2.50619 83.0231
lradius 37.4076
lwrist -11.8878
lhand -0.898313 -30.4377
lfingers 7.12502
lthumb 24.7297 -2.01611
rfemur -2.63074 8.76354 25.9216
rtibia 21.7594
rfoot -18.207 -27.8329
rtoes -6.70656
lfemur -9.83017 -14.508 -20.1609
ltibia 30.4688
lfoot -19.701 15.5024
ltoes -54.1226
34
root 8.70028 15.3607 21.543 178.516 -1.48572 -178.035
lowerback 8.94396 1.60608 2.17175
upperback -3.95694 2.40974 0.246543
thorax -9.15867 1.0272 -1.35664
lowerneck -6.76269 -3.65472 -7.75866
upperneck 12.1109 -5.09849 6.19012
head 5.09987 -2.5735 2.85172
rclavicle -1.28589e-015 -2.68359e-015
rhumerus -41.9822 7.0824 -88.2667
rradius 35.0832
rwrist 21.8857
rhand -11.438 -52.7116
rfingers 7.12502
rthumb 14.5985 -82.1778
lclavicle -1.28589e-015 -2.68359e-015
lhumerus -45.0462 2.5759 82.7999
lradius 37.1967
lwrist -11.8443
lhand -0.676366 -30.3693
lfingers 7.12502
lthumb 24.9424 -1.97706
rfemur -2.64006 8.78789 25.8734
rtibia 21.793
rfoot -18.5701 -27.8568
rtoes -5.68975
lfemur -9.83976 -14.5249 -20.2091
ltibia 30.4247
lfoot -19.7688 15.4323
ltoes -54.031
35
root 8.70216 15.3611 21.5436 178.568 -1.60364 -178.063
lowerback 8.95424 1.57323 2.12933
upperback -3.94408 2.36045 0.239401
thorax -9.15372 1.00611 -1.33252
lowerneck -6.59453 -3.65814 -7.73142
upperneck 11.8795 -5.08801 6.10195
head 4.99664 -2.57125 2.82375
rclavicle 2.678e-014 5.06901e-015
rhumerus -41.8436 6.99787 -88.0552
rradius 35.5471
rwrist 21.0848
rhand -11.1858 -52.2639
rfingers 7.12502
rthumb 14.8415 -81.7124
lclavicle 2.678e-014 5.06901e-015
lhumerus -45.0449 2.65959 82.5909
lradius 37.1366
lwrist -11.8943
lhand -0.328488 -30.2744
lfingers 7.12502
lthumb 25.2757 -1.92884
rfemur -2.67312 8.86303 25.8665
rtibia 21.8136
rfoot -18.9594 -27.9775
rtoes -5.20603
lfemur -9.91762 -14.582 -20.2086
ltibia 30.4103
lfoot -19.7544 15.5205
ltoes -54.4251
36
root 8.70294 15.3631 21.5436 178.721 -1.76816 -178.108
lowerback 8.87441 1.53586 2.09565
upperback -3.96782 2.30147 0.220447
thorax -9.13519 0.978622 -1.32177
lowerneck -6.51149 -3.66627 -7.72368
upperneck 11.7416 -5.08574 6.0391
head 4.93843 -2.57206 2.80476
rclavicle 1.4561e-014 3.57812e-015
rhumerus -41.7968 7.09636 -87.9737
rradius 35.9789
rwrist 20.3317
rhand -10.7061 -52.3412
rfingers 7.12502
rthumb 15.3036 -81.755
lclavicle 1.4561e-014 3.57812e-015
lhumerus -45.0497 2.73885 82.3803
lradius 37.0203
lwrist -12.0945
lhand 0.0724865 -30.02
lfingers 7.12502
lthumb 25.6598 -1.72923
rfemur -2.78902 8.9497 25.8372
rtibia 21.7967
rfoot -19.2151 -28.2242
rtoes -5.0186
lfemur -10.1167 -14.6999 -20.1978
ltibia 30.4148
lfoot -19.8684 15.427
ltoes -54.1573
37
root 8.70301 15.3641 21.5449 178.83 -1.85722 -178.15
lowerback 8.85476 1.5148 2.08491
upperback -3.99341 2.26956 0.205549
thorax -9.15247 0.962448 -1.32614
lowerneck -6.41659 -3.66054 -7.78053
upperneck 11.6406 -5.07748 6.08275
head 4.89328 -2.56831 2.83014
rclavicle -1.14736e-014 6.95746e-016
rhumerus -41.8865 7.42035 -88.0363
rradius 36.402
rwrist 19.7707
rhand -10.1669 -52.8012
rfingers 7.12502
rthumb 15.823 -82.1746
lclavicle -1.14736e-014 6.95746e-016
lhumerus -45.087 2.82733 82.1939
lradius 36.9008
lwrist -12.3227
lhand 0.720738 -29.1269
lfingers 7.12502
lthumb 26.2805 -0.927183
rfemur -2.84817 9.07031 25.8089
rtibia 21.7336
rfoot -19.2509 -28.4613
rtoes -4.36371
lfemur -10.2513 -14.7671 -20.2123
ltibia 30.3992
lfoot -19.9557 15.208
ltoes -53.529
38
root 8.70433 15.3664 21.5441 178.835 -1.84294 -178.145
lowerback 8.91525 1.5096 2.09365
upperback -3.98375 2.26684 0.217563
thorax -9.17781 0.960882 -1.31971
lowerneck -6.23659 -3.65486 -7.83808
upperneck 11.4584 -5.06047 6.05467
head 4.80662 -2.56454 2.83545
rclavicle -1.49772e-014 -9.0447e-015
rhumerus -41.9487 7.82242 -88.1648
rradius 36.7505
rwrist 18.9796
rhand -9.89473 -53.2364
rfingers 7.12502
rthumb 16.085 -82.5888
lclavicle -1.49772e-014 -9.0447e-015
lhumerus -45.1562 2.93134 82.0029
lradius 36.8296
lwrist -12.5383
lhand 1.11644 -28.7297
lfingers 7.12502
lthumb 26.6593 -0.586994
rfemur -2.80922 9.21012 25.8365
rtibia 21.6618
rfoot -19.2623 -28.6002
rtoes -3.0864
lfemur -10.2369 -14.7572 -20.2017
ltibia 30.3542
lfoot -19.9364 15.0955
ltoes -53.3148
39
root 8.70751 15.3736 21.5392 178.901 -1.93943 -178.149
lowerback 8.82433 1.49345 2.05754
upperback -3.9686 2.2377 0.215314
thorax -9.10996 0.950164 -1.29379
lowerneck -6.09697 -3.65697 -7.81477
upperneck 11.2722 -5.05769 6.01719
head 4.72436 -2.56367 2.82306
rclavicle 5.11249e-015 1.98785e-016
rhumerus -41.9704 8.17064 -88.3063
rradius 37.0419
rwrist 18.1689
rhand -9.61902 -53.4563
rfingers 7.12502
rthumb 16.3505 -82.7871
lclavicle 5.11249e-015 1.98785e-016
lhumerus -45.1834 2.99158 81.8043
lradius 36.7221
lwrist -12.6989
lhand 0.630158 -29.146
lfingers 7.12502
lthumb 26.1938 -0.933374
rfemur -2.84178 9.24896 25.8529
rtibia 21.6234
rfoot -19.1632 -28.8148
rtoes -1.7445
lfemur -10.2731 -14.8214 -20.1635
ltibia 30.2789
lfoot -19.9007 15.0143
ltoes -53.3422
40
root 8.71036 15.3782 21.5357 178.972 -2.07071 -178.196
lowerback 8.73668 1.47611 1.98734
upperback -3.9333 2.20316 0.209814
thorax -9.0233 0.939522 -1.25121
lowerneck -6.06937 -3.68009 -7.84354
upperneck 11.1449 -5.08222 6.06146
head 4.68436 -2.57207 2.84077
rclavicle 5.54112e-015 -1.98785e-016
rhumerus -41.968 8.45646 -88.3396
rradius 37.3791
rwrist 17.7073
rhand -9.09689 -53.5338
rfingers 7.12502
rthumb 16.8532 -82.8225
lclavicle 5.54112e-015 -1.98785e-016
lhumerus -45.1788 3.06374 81.6641
lradius 36.6844
lwrist -12.711
lhand 0.330575 -29.1701
lfingers 7.12502
lthumb 25.907 -0.915255
rfemur -2.86353 9.21053 25.8359
rtibia 21.5949
rfoot -18.8991 -29.0852
rtoes -1.35767
lfemur -10.3095 -14.8782 -20.1712
ltibia 30.1818
lfoot -19.8337 14.9485
ltoes -53.4602
41
root 8.71102 15.3755 21.5362 178.943 -2.06331 -178.259
lowerback 8.8662 1.47515 1.93989
upperback -3.89441 2.20067 0.204224
thorax -9.05856 0.941625 -1.23379
lowerneck -6.09999 -3.70386 -7.90754
upperneck 11.1315 -5.10302 6.06633
head 4.68881 -2.58301 2.85084
rclavicle -1.76421e-015 -7.95139e-016
rhumerus -41.9056 8.73211 -88.3589
rradius 37.5819
rwrist 17.4578
rhand -8.95979 -53.4366
rfingers 7.12502
rthumb 16.9851 -82.714
lclavicle -1.76421e-015 -7.95139e-016
lhumerus -45.2026 3.18443 81.5018
lradius 36.6581
lwrist -12.6478
lhand 0.462794 -29.3742
lfingers 7.12502
lthumb 26.0336 -1.13793
rfemur -2.78999 9.15463 25.8039
rtibia 21.5363
rfoot -18.4382 -29.21
rtoes -1.88175
lfemur -10.2454 -14.8322 -20.243
ltibia 30.1028
lfoot -19.7474 14.9858
ltoes -53.7068
42
root 8.71299 15.374 21.5369 178.927 -2.08523 -178.251
lowerback 9.00883 1.4659 1.95598
upperback -3.88719 2.1942 0.19247
thorax -9.13373 0.936472 -1.25884
lowerneck -6.19992 -3.69386 -7.94895
upperneck 11.2343 -5.09516 6.15109
head 4.73958 -2.57593 2.88257
rclavicle 5.26779e-015 3.27995e-015
rhumerus -41.8288 8.93565 -88.4185
rradius 37.6696
rwrist 17.3758
rhand -9.04256 -53.2744
rfingers 7.12502
rthumb 16.9055 -82.5586
lclavicle 5.26779e-015 3.27995e-015
lhumerus -45.2696 3.12041 81.3285
lradius 36.6427
lwrist -12.5141
lhand 0.787003 -29.2424
lfingers 7.12502
lthumb 26.344 -1.05214
rfemur -2.7458 9.18765 25.8499
rtibia 21.4648
rfoot -18.0387 -29.2531
rtoes -1.62643
lfemur -10.2271 -14.8042 -20.2255
ltibia 30.068
lfoot -19.6737 15.0058
ltoes -53.9462
43
root 8.71617 15.3771 21.5364 178.909 -2.16667 -178.161
lowerback 9.11096 1.44101 2.04413
upperback -3.86403 2.17671 0.205219
thorax -9.16654 0.923219 -1.29481
lowerneck -6.27286 -3.6884 -8.01392
upperneck 11.2545 -5.09099 6.27515
head 4.76237 -2.56826 2.93093
rclavicle -1.56729e-014 -2.48481e-015
rhumerus -41.7186 9.14785 -88.4295
rradius 37.7663
rwrist 17.3617
rhand -8.62586 -53.3569
rfingers 7.12502
rthumb 17.3066 -82.6064
lclavicle -1.56729e-014 -2.48481e-015
lhumerus -45.3687 2.96695 81.198
lradius 36.7145
lwrist -12.3765
lhand 0.964411 -28.6295
lfingers 7.12502
lthumb 26.5138 -0.464798
rfemur -2.67468 9.2494 25.9836
rtibia 21.368
rfoot -17.9081 -29.1969
rtoes -0.656073
lfemur -10.223 -14.8371 -20.1077
ltibia 30.0567
lfoot -19.7005 14.8315
ltoes -53.6996
44
root 8.71713 15.3788 21.5349 178.87 -2.16609 -178.092
lowerback 9.22551 1.43731 2.12648
upperback -3.85224 2.18907 0.242705
thorax -9.21929 0.924887 -1.30671
lowerneck -6.14457 -3.71288 -8.09491
upperneck 11.1357 -5.11038 6.22528
head 4.70684 -2.58418 2.92968
rclavicle -1.37969e-014 -4.47266e-015
rhumerus -41.6493 9.40082 -88.3793
rradius 37.8063
rwrist 17.3844
rhand -8.41904 -53.5426
rfingers 7.12502
rthumb 17.5056 -82.7744
lclavicle -1.37969e-014 -4.47266e-015
lhumerus -45.5175 3.05255 81.0406
lradius 36.7343
lwrist -12.4505
lhand 0.665253 -28.3879
lfingers 7.12502
lthumb 26.2274 -0.18026
rfemur -2.57592 9.277 26.0713
rtibia 21.228
rfoot -17.6456 -29.09
rtoes -0.684291
lfemur -10.1866 -14.8503 -20.036
ltibia 30.0421
lfoot -19.6219 14.8698
ltoes -53.7746
